<svg width="21" height="27" viewBox="0 0 21 27" fill="none" xmlns="http://www.w3.org/2000/svg">
<path d="M4.8 11.7955C4.8 10.854 3.94943 10.0909 2.9 10.0909C1.85057 10.0909 1 10.854 1 11.7955V17.4773C1 22.1841 5.25347 26 10.5 26C15.7465 26 20 22.1841 20 17.4773V13.5C20 12.5585 19.1494 11.7955 18.1 11.7955C17.0506 11.7955 16.2 12.5585 16.2 13.5V12.3636C16.2 11.4222 15.3494 10.6591 14.3 10.6591C13.2506 10.6591 12.4 11.4222 12.4 12.3636V11.2273C12.4 10.2858 11.5494 9.52273 10.5 9.52273C9.45057 9.52273 8.6 10.2858 8.6 11.2273V2.70455C8.6 1.76307 7.74943 1 6.7 1C5.65057 1 4.8 1.76307 4.8 2.70455V16.9091V11.7955V11.7955Z" stroke="#008BD9" stroke-width="2" stroke-miterlimit="10" stroke-linecap="round" stroke-linejoin="round"/>
</svg>
