<svg width="32" height="32" viewBox="0 0 32 32" fill="none" xmlns="http://www.w3.org/2000/svg">
<g clip-path="url(#clip0_3_11)">
<path d="M22.6667 14.6667C22.6667 18.3467 19.68 21.3333 16 21.3333C12.32 21.3333 9.33335 18.3467 9.33335 14.6667H6.66669C6.66669 19.3733 10.1467 23.24 14.6667 23.8933V28H17.3334V23.8933C21.8534 23.24 25.3334 19.3733 25.3334 14.6667H22.6667Z" fill="white"/>
<path d="M16 18.6667C18.2133 18.6667 20 16.88 20 14.6667V6.66666C20 4.45332 18.2133 2.66666 16 2.66666C13.7867 2.66666 12 4.45332 12 6.66666V14.6667C12 16.88 13.7867 18.6667 16 18.6667ZM14.6667 6.66666C14.6667 5.93332 15.2667 5.33332 16 5.33332C16.7333 5.33332 17.3333 5.93332 17.3333 6.66666V14.6667C17.3333 15.4 16.7333 16 16 16C15.2667 16 14.6667 15.4 14.6667 14.6667V6.66666Z" fill="white"/>
<path d="M16 18.6667C18.2133 18.6667 20 16.88 20 14.6667V6.66666C20 4.45332 18.2133 2.66666 16 2.66666C13.7867 2.66666 12 4.45332 12 6.66666V14.6667C12 16.88 13.7867 18.6667 16 18.6667Z" fill="white"/>
</g>
<defs>
<clipPath id="clip0_3_11">
<rect width="32" height="32" fill="white"/>
</clipPath>
</defs>
</svg>
